HIERARCHY
ROOT hip
{
  OFFSET 0 0 0
  CHANNELS 6 Xposition Yposition Zposition Zrotation Yrotation Xrotation
  JOINT abdomen
  {
    OFFSET 0 20.6881 -0.73152
    CHANNELS 3 Zrotation Xrotation Yrotation
    JOINT chest
    {
      OFFSET 0 11.7043 -0.48768
      CHANNELS 3 Zrotation Xrotation Yrotation
      JOINT neck
      {
        OFFSET 0 22.1894 -2.19456
        CHANNELS 3 Zrotation Xrotation Yrotation
        JOINT head
        {
          OFFSET -0.24384 7.07133 1.2192
          CHANNELS 3 Zrotation Xrotation Yrotation
          JOINT leftEye
          {
            OFFSET 4.14528 8.04674 8.04672
            CHANNELS 3 Zrotation Xrotation Yrotation
            End Site
            {
              OFFSET 1 0 0
            }
          }
          JOINT rightEye
          {
            OFFSET -3.6576 8.04674 8.04672
            CHANNELS 3 Zrotation Xrotation Yrotation
            End Site
            {
              OFFSET 1 0 0
            }
          }
        }
      }
      JOINT rCollar
      {
        OFFSET -2.68224 19.2634 -4.8768
        CHANNELS 3 Zrotation Xrotation Yrotation
        JOINT rShldr
        {
          OFFSET -8.77824 -1.95073 1.46304
          CHANNELS 3 Zrotation Xrotation Yrotation
          JOINT rForeArm
          {
            OFFSET -28.1742 -1.7115 0.48768
            CHANNELS 3 Zrotation Xrotation Yrotation
            JOINT rHand
            {
              OFFSET -22.5879 0.773209 7.07136
              CHANNELS 3 Zrotation Xrotation Yrotation
              JOINT rThumb1
              {
                OFFSET -1.2192 -0.487915 3.41376
                CHANNELS 3 Zrotation Xrotation Yrotation
                JOINT rThumb2
                {
                  OFFSET -3.37035 -0.52449 3.41376
                  CHANNELS 3 Zrotation Xrotation Yrotation
                  End Site
                  {
                    OFFSET -1.78271 -1.18214 1.43049
                  }
                }
              }
              JOINT rIndex1
              {
                OFFSET -7.75947 0.938293 5.60832
                CHANNELS 3 Zrotation Xrotation Yrotation
                JOINT rIndex2
                {
                  OFFSET -2.54057 -0.884171 1.56538
                  CHANNELS 3 Zrotation Xrotation Yrotation
                  End Site
                  {
                    OFFSET -1.62519 -0.234802 1.16502
                  }
                }
              }
              JOINT rMid1
              {
                OFFSET -8.24714 1.18213 3.41376
                CHANNELS 3 Zrotation Xrotation Yrotation
                JOINT rMid2
                {
                  OFFSET -3.10165 -0.590103 1.0647
                  CHANNELS 3 Zrotation Xrotation Yrotation
                  End Site
                  {
                    OFFSET -2.48547 -0.328903 0.83742
                  }
                }
              }
              JOINT rRing1
              {
                OFFSET -8.82822 0.546677 1.51678
                CHANNELS 3 Zrotation Xrotation Yrotation
                JOINT rRing2
                {
                  OFFSET -2.60934 -0.819778 -0.0198488
                  CHANNELS 3 Zrotation Xrotation Yrotation
                  End Site
                  {
                    OFFSET -2.33842 -0.294052 0.168128
                  }
                }
              }
              JOINT rPinky1
              {
                OFFSET -8.27202 -0.0477905 -0.4584
                CHANNELS 3 Zrotation Xrotation Yrotation
                JOINT rPinky2
                {
                  OFFSET -1.82734 -0.647385 -0.700984
                  CHANNELS 3 Zrotation Xrotation Yrotation
                  End Site
                  {
                    OFFSET -1.69225 -0.51767 -0.607171
                  }
                }
              }
            }
          }
        }
      }
      JOINT lCollar
      {
        OFFSET 2.68224 19.2634 -4.8768
        CHANNELS 3 Zrotation Xrotation Yrotation
        JOINT lShldr
        {
          OFFSET 8.77824 -1.95073 1.46304
          CHANNELS 3 Zrotation Xrotation Yrotation
          JOINT lForeArm
          {
            OFFSET 28.1742 -1.7115 0.48768
            CHANNELS 3 Zrotation Xrotation Yrotation
            JOINT lHand
            {
              OFFSET 22.5879 0.773209 7.07136
              CHANNELS 3 Zrotation Xrotation Yrotation
              JOINT lThumb1
              {
                OFFSET 1.2192 -0.487915 3.41376
                CHANNELS 3 Zrotation Xrotation Yrotation
                JOINT lThumb2
                {
                  OFFSET 3.37035 -0.52449 3.41376
                  CHANNELS 3 Zrotation Xrotation Yrotation
                  End Site
                  {
                    OFFSET 1.78271 -1.18214 1.43049
                  }
                }
              }
              JOINT lIndex1
              {
                OFFSET 7.75947 0.938293 5.60832
                CHANNELS 3 Zrotation Xrotation Yrotation
                JOINT lIndex2
                {
                  OFFSET 2.54057 -0.884171 1.56538
                  CHANNELS 3 Zrotation Xrotation Yrotation
                  End Site
                  {
                    OFFSET 1.62519 -0.234802 1.16502
                  }
                }
              }
              JOINT lMid1
              {
                OFFSET 8.24714 1.18213 3.41376
                CHANNELS 3 Zrotation Xrotation Yrotation
                JOINT lMid2
                {
                  OFFSET 3.10165 -0.590103 1.0647
                  CHANNELS 3 Zrotation Xrotation Yrotation
                  End Site
                  {
                    OFFSET 2.48547 -0.328903 0.83742
                  }
                }
              }
              JOINT lRing1
              {
                OFFSET 8.82822 0.546677 1.51678
                CHANNELS 3 Zrotation Xrotation Yrotation
                JOINT lRing2
                {
                  OFFSET 2.60934 -0.819778 -0.0198488
                  CHANNELS 3 Zrotation Xrotation Yrotation
                  End Site
                  {
                    OFFSET 2.33842 -0.294052 0.168128
                  }
                }
              }
              JOINT lPinky1
              {
                OFFSET 8.27202 -0.0477905 -0.4584
                CHANNELS 3 Zrotation Xrotation Yrotation
                JOINT lPinky2
                {
                  OFFSET 1.82734 -0.647385 -0.700984
                  CHANNELS 3 Zrotation Xrotation Yrotation
                  End Site
                  {
                    OFFSET 1.69225 -0.51767 -0.607171
                  }
                }
              }
            }
          }
        }
      }
    }
  }
  JOINT rButtock
  {
    OFFSET -8.77824 4.35084 1.2192
    CHANNELS 3 Zrotation Xrotation Yrotation
    JOINT rThigh
    {
      OFFSET 0 -1.70687 -2.19456
      CHANNELS 3 Zrotation Xrotation Yrotation
      JOINT rShin
      {
        OFFSET 0 -36.8199 0.73152
        CHANNELS 3 Zrotation Xrotation Yrotation
        JOINT rFoot
        {
          OFFSET 0.73152 -45.1104 -5.12064
          CHANNELS 3 Zrotation Xrotation Yrotation
          End Site
          {
            OFFSET -1.1221 -3.69964 12.103
          }
        }
      }
    }
  }
  JOINT lButtock
  {
    OFFSET 8.77824 4.35084 1.2192
    CHANNELS 3 Zrotation Xrotation Yrotation
    JOINT lThigh
    {
      OFFSET 0 -1.70687 -2.19456
      CHANNELS 3 Zrotation Xrotation Yrotation
      JOINT lShin
      {
        OFFSET 0 -36.8199 0.73152
        CHANNELS 3 Zrotation Xrotation Yrotation
        JOINT lFoot
        {
          OFFSET -0.73152 -45.1104 -5.12064
          CHANNELS 3 Zrotation Xrotation Yrotation
          End Site
          {
            OFFSET 1.1221 -3.69964 12.103
          }
        }
      }
    }
  }
}
MOTION
Frames:	4
Frame Time:	0.00833333
93.0038 83.4221 -146.188 0.0 0.0 0.0 -2.71684 0.00115912 -0.0732872 -0.748379 0.0144129 -0.129495 1.18915e-13 0.0 -8.44835e-16 3.55474e-13 3.18055e-15 -2.637e-15 -0.0 0.0 0.0 -0.0 0.0 0.0 5.95385e-14 3.22637e-16 -1.98785e-16 1.247e-12 7.23079e-15 -3.57812e-15 2.14558e-11 -6.18896e-12 -3.81667e-13 2.4574e-10 7.69627e-12 -1.31039e-12 5.79619e-10 3.26333e-12 -3.71489e-12 1.00096e-09 5.62958e-12 -6.41995e-12 5.79623e-10 3.26245e-12 -3.72443e-12 7.73091 5.47488 0.417314 5.79618e-10 3.26255e-12 -3.70535e-12 2.90554 0.965183 0.102902 5.79625e-10 3.26365e-12 -3.70694e-12 10.2786 0.731801 0.0259123 5.79607e-10 3.26563e-12 -3.6958e-12 2.22167 -0.733487 -0.20892 5.92393e-14 3.2186e-16 -6.95746e-16 1.2461e-12 6.84565e-15 -5.1684e-15 2.14885e-11 6.64776e-12 -3.53042e-13 2.4569e-10 -5.15913e-12 -1.31675e-12 5.79594e-10 3.23062e-12 -3.69899e-12 1.00094e-09 5.57869e-12 -6.41518e-12 5.7959e-10 3.22985e-12 -3.68626e-12 -7.73091 5.47488 -0.417314 5.79595e-10 3.23035e-12 -3.70535e-12 -2.90554 0.965183 -0.102902 5.79593e-10 3.23025e-12 -3.70614e-12 -10.2786 0.731801 -0.0259123 5.79607e-10 3.23502e-12 -3.71489e-12 -2.22167 -0.733487 0.20892 -2.03217e-16 0.0 -3.88251e-19 -1.56641 -1.93222 0.00883384 -0.00885777 -2.07861 -0.0729188 -0.496724 3.9993 0.138071 2.03217e-16 0.0 3.88251e-19 -2.55945 -8.62929 0.275741 -0.00720623 10.0515 -0.18688 0.546757 -1.4336 -0.0320232
89.6171 82.2793 -147.881 -5.8172 -31.5232 3.8711 -1.96818 0.283798 -0.687651 -1.74769 1.49273 -0.265879 -2.25796 2.09032 -2.29266 6.33099 -5.02923 -3.32415 -0.0 0.0 0.0 -0.0 0.0 0.0 1.09616e-13 1.94571e-14 -2.79274e-13 21.9996 7.76272 0.823754 -5.31054 -2.67886 7.98567 -5.85748e-06 0.0276517 0.00388623 1.11533e-09 -1.72325e-09 -4.53594e-10 1.9287e-09 -2.98357e-09 -7.86308e-10 1.11533e-09 -1.72325e-09 -4.53604e-10 7.73091 5.47488 0.417314 1.11533e-09 -1.72325e-09 -4.53587e-10 2.90554 0.965183 0.102902 1.11534e-09 -1.72325e-09 -4.53589e-10 10.2786 0.731801 0.0259123 1.11532e-09 -1.72324e-09 -4.53578e-10 2.22167 -0.733487 -0.20892 1.09375e-13 1.94511e-14 -2.79704e-13 -19.9983 7.90518 -2.64592 3.58072 -1.51714 -5.70696 -0.00066055 -0.647718 0.0910147 1.09238e-09 -1.00501e-09 -8.00339e-10 1.88779e-09 -1.73978e-09 -1.38405e-09 1.09237e-09 -1.00501e-09 -8.00327e-10 -7.73091 5.47488 -0.417314 1.09238e-09 -1.00501e-09 -8.00344e-10 -2.90554 0.965183 -0.102902 1.09237e-09 -1.00501e-09 -8.00344e-10 -10.2786 0.731801 -0.0259123 1.09239e-09 -1.00501e-09 -8.00353e-10 -2.22167 -0.733487 0.20892 -2.03217e-16 0.0 -3.88251e-19 -1.01629 -5.28592 -0.888568 0.0187672 6.79047 0.100754 -0.80498 -1.53852 -2.48666 2.03217e-16 0.0 3.88251e-19 -0.720694 -10.368 2.64296 -0.0108267 17.3577 -0.311603 0.83581 -6.14861 1.98221
89.5531 82.2821 -147.867 -5.7798 -31.487 3.7938 -1.17162 0.582947 -1.33506 -2.79701 3.05499 -0.409884 -4.46035 4.28538 -4.72636 12.3806 -10.2857 -6.92428 -0.0 0.0 0.0 -0.0 0.0 0.0 1.70531e-13 4.23886e-14 -6.15099e-13 45.0041 15.9688 1.75028 -10.1298 -5.34476 16.4966 -2.09057e-05 0.0499219 0.00701616 1.77454e-09 -3.78132e-09 -1.01999e-09 3.07007e-09 -6.54687e-09 -1.76811e-09 1.77454e-09 -3.78132e-09 -1.02e-09 7.73091 5.47488 0.417314 1.77454e-09 -3.78132e-09 -1.01998e-09 2.90554 0.965183 0.102902 1.77454e-09 -3.78132e-09 -1.01999e-09 10.2786 0.731801 0.0259123 1.77453e-09 -3.78132e-09 -1.01997e-09 2.22167 -0.733487 -0.20892 1.70349e-13 4.23767e-14 -6.15459e-13 -40.3041 16.2382 -5.62321 7.05876 -3.0829 -11.7847 0.00103447 -1.36789 0.192253 1.73725e-09 -2.21331e-09 -1.73045e-09 3.003e-09 -3.83159e-09 -2.99264e-09 1.73725e-09 -2.21331e-09 -1.73044e-09 -7.73091 5.47488 -0.417314 1.73726e-09 -2.21331e-09 -1.73045e-09 -2.90554 0.965183 -0.102902 1.73725e-09 -2.21331e-09 -1.73045e-09 -10.2786 0.731801 -0.0259123 1.73726e-09 -2.2133e-09 -1.73046e-09 -2.22167 -0.733487 0.20892 -2.03217e-16 0.0 -3.88251e-19 -0.550139 -8.83179 -1.84839 -0.0122983 16.1665 0.294481 -1.68462 -7.36104 -5.30142 2.03217e-16 0.0 3.88251e-19 1.38323 -12.1793 5.17493 0.0238332 25.0777 -0.460724 1.50688 -11.1133 4.16231
89.5101 82.2784 -147.859 -5.7275 -31.341 3.7736 -0.452688 0.848661 -1.91656 -3.72514 4.44923 -0.540003 -6.27084 6.23071 -6.91445 17.2007 -14.8811 -10.2824 -0.0 0.0 0.0 -0.0 0.0 0.0 2.09772e-13 5.7726e-14 -8.37425e-13 65.2789 23.268 2.66555 -13.7484 -7.41344 24.1452 -2.88262e-05 0.082955 0.0116587 2.18676e-09 -5.17626e-09 -1.35335e-09 3.78419e-09 -8.96196e-09 -2.34609e-09 2.18676e-09 -5.17627e-09 -1.35336e-09 7.73091 5.47488 0.417314 2.18676e-09 -5.17626e-09 -1.35335e-09 2.90554 0.965183 0.102902 2.18676e-09 -5.17627e-09 -1.35335e-09 10.2786 0.731801 0.0259123 2.18675e-09 -5.17626e-09 -1.35334e-09 2.22167 -0.733487 -0.20892 2.09647e-13 5.77095e-14 -8.37722e-13 -57.6445 23.5039 -8.57873 9.84825 -4.37112 -17.1663 0.00419477 -1.94313 0.273184 2.11794e-09 -3.0215e-09 -2.39362e-09 3.66148e-09 -5.23049e-09 -4.13931e-09 2.11794e-09 -3.0215e-09 -2.39361e-09 -7.73091 5.47488 -0.417314 2.11795e-09 -3.0215e-09 -2.39362e-09 -2.90554 0.965183 -0.102902 2.11794e-09 -3.0215e-09 -2.39362e-09 -10.2786 0.731801 -0.0259123 2.11795e-09 -3.0215e-09 -2.39363e-09 -2.22167 -0.733487 0.20892 -2.03217e-16 0.0 -3.88251e-19 -0.237361 -11.982 -2.73158 -0.099001 24.5279 0.490113 -2.96566 -12.5019 -7.92174 2.03217e-16 0.0 3.88251e-19 3.39847 -13.7643 7.46978 0.0954628 31.9694 -0.61794 2.43912 -15.5027 6.20295
